<svg width="13" height="13" viewBox="0 0 13 13" fill="none" xmlns="http://www.w3.org/2000/svg">
<path fill-rule="evenodd" clip-rule="evenodd" d="M3.01099 5.26279C3.01099 3.32774 4.57111 1.7627 6.50008 1.7627C8.42906 1.7627 9.98918 3.32774 9.98918 5.26279C9.98918 7.34785 7.78607 10.2229 6.88388 11.318C6.68451 11.558 6.32064 11.558 6.12127 11.318C5.2141 10.2229 3.01099 7.34785 3.01099 5.26279ZM5.25403 5.26464C5.25403 5.95506 5.81228 6.5154 6.50013 6.5154C7.18799 6.5154 7.74624 5.95506 7.74624 5.26464C7.74624 4.57422 7.18799 4.01388 6.50013 4.01388C5.81228 4.01388 5.25403 4.57422 5.25403 5.26464Z" fill="#CD222D"/>
</svg>
